<svg width="31" height="29" viewBox="0 0 31 29" fill="none" xmlns="http://www.w3.org/2000/svg">
<path fill-rule="evenodd" clip-rule="evenodd" d="M9.98605 11.111C12.4131 10.5322 15.3974 10.5085 18.8913 10.9834C19.163 12.9445 19.2245 15.2752 18.9322 17.5288C18.5724 20.3038 17.7117 22.697 16.3243 24.2129C13.4639 27.3382 8.61153 27.5529 5.48625 24.6925C2.36098 21.8321 2.14625 16.9798 5.00664 13.8545C5.77698 13.0128 6.719 12.3444 7.82538 11.8405L8.23514 9.53096C6.39018 10.1497 4.8006 11.1174 3.53129 12.5042C-0.0748589 16.4443 0.195853 22.5617 4.13594 26.1679C8.07603 29.774 14.1935 29.5033 17.7996 25.5632C21.3652 21.6674 21.5934 14.1134 20.6496 9.38264C20.6302 9.28494 20.5515 9.21143 20.4532 9.19537C16.7333 8.5876 13.3034 8.4465 10.3627 8.98791L9.98605 11.111Z" fill="#002550"/>
<path fill-rule="evenodd" clip-rule="evenodd" d="M14.9868 4.25317C17.9826 1.25741 22.8397 1.25741 25.8355 4.25317C28.8312 7.24893 28.8312 12.106 25.8355 15.1018C25.066 15.8712 24.1475 16.4764 23.086 16.925L22.7347 19.1837C24.4734 18.6388 25.9956 17.7701 27.2497 16.516C31.0265 12.7392 31.0265 6.61577 27.2497 2.83896C23.4729 -0.937856 17.3494 -0.937856 13.5726 2.83896C9.83827 6.57332 9.27639 14.1099 10.0101 18.8777C10.0252 18.9762 10.1005 19.0531 10.198 19.0735C14.04 19.877 17.5902 20.1611 20.6346 19.6722L20.9603 17.5782C18.4692 18.0995 15.4118 18.0042 11.8375 17.3563C11.6528 15.385 11.6943 13.054 12.0859 10.8154C12.5681 8.05913 13.5338 5.70623 14.9868 4.25317Z" fill="#002550"/>
</svg>
