<svg width="21" height="12" viewBox="0 0 21 12" fill="none" xmlns="http://www.w3.org/2000/svg">
<path d="M20.399 0H0V3.99819H20.399V0Z" fill="#F0953E"/>
<path d="M20.401 8.00488H0.00195312V12.0006H20.401V8.00488Z" fill="#3B8916"/>
<path d="M20.401 3.99805H0.00195312V8.00464H20.401V3.99805Z" fill="white"/>
<path d="M9.78543 4C8.79996 4 8 4.80369 8 5.79681C8 6.78993 8.79996 7.59609 9.78543 7.59609C10.7709 7.59609 11.5709 6.78993 11.5709 5.79681C11.5699 4.80369 10.7709 4 9.78543 4ZM9.78445 4.17459L9.7393 5.07917L9.78789 5.59354L9.83304 5.07917L9.78789 4.17459C9.83549 4.17459 9.88065 4.17706 9.9258 4.18151C9.9258 4.18398 9.92334 4.18398 9.92334 4.18646C9.92334 4.22949 9.95671 4.26559 9.99696 4.26559C10.0347 4.26559 10.0657 4.23443 10.0691 4.19882C10.1143 4.20822 10.157 4.21564 10.2006 4.22998L9.92531 5.09104L9.83746 5.60046L10.0156 5.11231L10.2055 4.22949C10.2482 4.24383 10.2909 4.2557 10.3336 4.27251C10.3312 4.27944 10.3277 4.28933 10.3277 4.29873C10.3277 4.33928 10.3611 4.37291 10.4023 4.37291C10.4308 4.37291 10.4593 4.35363 10.4701 4.32741C10.5103 4.3467 10.5496 4.36797 10.5898 4.3922L10.102 5.14842L9.88604 5.62222L10.1839 5.19886L10.5932 4.39517C10.6301 4.41644 10.6678 4.44067 10.7061 4.46441C10.6953 4.47875 10.6894 4.4931 10.6894 4.51239C10.6894 4.55294 10.7228 4.58657 10.764 4.58657C10.7876 4.58657 10.8092 4.57718 10.8224 4.55541C10.8583 4.58657 10.8911 4.61773 10.9221 4.64889L10.2576 5.25426L9.92874 5.65388L10.3238 5.3235L10.9255 4.65136C10.9564 4.68499 10.9873 4.71615 11.0158 4.75176C10.9981 4.76611 10.9898 4.78787 10.9898 4.80913C10.9898 4.84969 11.0232 4.88332 11.0624 4.88332C11.0801 4.88332 11.0933 4.87837 11.1066 4.86898C11.1341 4.90706 11.1576 4.94564 11.1792 4.98372L10.3817 5.39521L9.96162 5.6969L10.4283 5.48176L11.1822 4.98669C11.2072 5.02972 11.2273 5.07522 11.2475 5.1133C11.2224 5.12517 11.2023 5.15386 11.2023 5.18501C11.2023 5.22557 11.2357 5.2592 11.2749 5.2592C11.2867 5.2592 11.2951 5.25673 11.3034 5.25228C11.3176 5.29531 11.3309 5.33586 11.3412 5.37889L10.4642 5.56535L9.98322 5.74488L10.4887 5.65882L11.3432 5.38384C11.3539 5.42192 11.3647 5.46989 11.3731 5.51292C11.3363 5.51787 11.3088 5.54655 11.3088 5.58711C11.3088 5.62766 11.3432 5.6613 11.3834 5.6613H11.3908C11.3957 5.70432 11.3957 5.7523 11.3957 5.79533L10.5005 5.7523L9.98763 5.7978L10.5005 5.84825L11.3957 5.80027C11.3957 5.84825 11.3957 5.89375 11.3908 5.93678H11.3834C11.3432 5.93678 11.3088 5.97288 11.3088 6.01096C11.3088 6.04905 11.3363 6.07773 11.3716 6.08515C11.3633 6.13065 11.3539 6.17368 11.3432 6.21671L11.0379 6.11878L10.4882 5.93925L9.98273 5.85319L10.4637 6.03272L11.3407 6.22165C11.3299 6.26468 11.3171 6.31018 11.3005 6.34827C11.298 6.34827 11.2936 6.34579 11.2911 6.34579H11.2744C11.2327 6.34579 11.1998 6.37695 11.1998 6.41998C11.1998 6.43185 11.2023 6.43927 11.2067 6.44867C11.2102 6.46054 11.2175 6.46993 11.2268 6.47735C11.2268 6.47735 11.2303 6.47983 11.2327 6.47983C11.2327 6.47983 11.2376 6.48477 11.2396 6.48477C11.2396 6.48477 11.243 6.48724 11.2445 6.48972C11.2254 6.53027 11.2043 6.57083 11.1817 6.60941L10.4288 6.11878H10.4279L9.96113 5.90364H9.96359L10.208 6.07575L10.3812 6.20039L11.1787 6.61188C11.1552 6.65243 11.1311 6.69299 11.1051 6.72909C11.0933 6.72217 11.0776 6.71722 11.0624 6.71722C11.0207 6.71722 10.9888 6.74838 10.9888 6.78894C10.9888 6.81268 10.9981 6.83444 11.0163 6.84631C10.9868 6.87994 10.9569 6.91308 10.926 6.94424L10.3243 6.27457L9.93021 5.94419L10.2581 6.34382L10.9226 6.94918C10.8916 6.98281 10.8607 7.00903 10.8264 7.03771C10.8121 7.02584 10.7969 7.0209 10.7802 7.0209C10.74 7.0209 10.7066 7.057 10.7066 7.09508C10.7066 7.10943 10.7091 7.11882 10.7125 7.12871C10.6732 7.15245 10.633 7.17916 10.5937 7.20537L10.1844 6.40168L9.88653 5.97585L10.1015 6.44718L10.5893 7.20785C10.5501 7.22961 10.5108 7.25088 10.4706 7.27016C10.4598 7.24148 10.4337 7.22466 10.4043 7.22466C10.3626 7.22466 10.3297 7.26077 10.3297 7.29885C10.3297 7.30825 10.3322 7.31814 10.3346 7.32754C10.2919 7.34188 10.2502 7.35622 10.2065 7.36562L10.0166 6.48032L9.83844 5.99959V5.99711L9.92629 6.50653L10.2016 7.36809C10.1579 7.37996 10.1138 7.39183 10.0701 7.39678C10.0642 7.36315 10.0333 7.33446 9.99794 7.33446C9.95524 7.33446 9.92432 7.36809 9.92432 7.40617V7.41557C9.87917 7.42052 9.83402 7.4225 9.78887 7.4225L9.83402 6.52038L9.78642 6.00354L9.74028 6.52038L9.78543 7.4225C9.73783 7.4225 9.69415 7.42002 9.64753 7.41557V7.40617C9.64753 7.36809 9.61415 7.33446 9.57293 7.33446C9.5371 7.33446 9.50668 7.36315 9.5003 7.39678C9.45662 7.38985 9.41392 7.37996 9.3722 7.36809L9.64753 6.50653L9.73292 5.99909L9.55477 6.47983L9.3673 7.36512C9.3246 7.35573 9.2819 7.34138 9.23773 7.32704C9.24117 7.31764 9.24362 7.30775 9.24362 7.29836C9.24362 7.26027 9.21025 7.22417 9.17099 7.22417C9.14007 7.22417 9.11406 7.24346 9.10081 7.26967C9.06154 7.25038 9.0213 7.22911 8.98204 7.20735L9.46987 6.44669L9.68335 5.97535L9.38644 6.39871L8.97811 7.20488C8.93885 7.17867 8.89959 7.15443 8.86278 7.12822C8.87112 7.11882 8.87701 7.10448 8.87701 7.08766C8.87701 7.04464 8.84364 7.011 8.80438 7.011C8.77935 7.011 8.75923 7.02287 8.74745 7.03969C8.71162 7.00853 8.67874 6.98232 8.64782 6.94869L9.31478 6.34332L9.64262 5.9437L9.24755 6.27408L8.64586 6.94374C8.61249 6.91258 8.58304 6.87697 8.5531 6.84581C8.56979 6.83147 8.58157 6.80971 8.58157 6.78597C8.58157 6.74541 8.54819 6.71426 8.50795 6.71426C8.49126 6.71426 8.47605 6.7192 8.46378 6.72613C8.43777 6.69002 8.41372 6.65194 8.39115 6.61138L9.19111 6.19742L9.60778 5.90314L9.14105 6.11829L8.38869 6.60891C8.36612 6.57083 8.34845 6.53225 8.32833 6.48922C8.35679 6.47982 8.37593 6.45312 8.37593 6.42245C8.37593 6.37943 8.34403 6.34579 8.30134 6.34579C8.29054 6.34579 8.28023 6.34827 8.27042 6.35272C8.25618 6.31216 8.24195 6.26666 8.2287 6.22116L9.10719 6.03223L9.59011 5.8527L9.08216 5.93875L8.22723 6.21621C8.21545 6.17319 8.20711 6.13016 8.19778 6.08218C8.23459 6.07724 8.26207 6.04855 8.26207 6.01047C8.26207 5.96991 8.2287 5.93628 8.18846 5.93628H8.18011C8.17766 5.89325 8.17422 5.84775 8.17422 5.79978L9.07038 5.84775L9.58225 5.7973L9.07038 5.7518L8.17422 5.79483C8.17422 5.7518 8.17766 5.70383 8.18011 5.6608H8.19336C8.23361 5.6608 8.26698 5.62964 8.26698 5.58661C8.26698 5.54606 8.23753 5.51737 8.19827 5.51243C8.2076 5.4694 8.21594 5.42142 8.22772 5.38334L9.08265 5.65833L9.5906 5.74438L9.10768 5.56485L8.22919 5.37592C8.24244 5.33042 8.25667 5.28739 8.27091 5.24684C8.27778 5.24931 8.29005 5.25178 8.29839 5.25178C8.34011 5.25178 8.37201 5.21815 8.37201 5.1776C8.37201 5.14644 8.35287 5.12022 8.32784 5.11083C8.34698 5.0678 8.3671 5.02724 8.38967 4.98619L9.14203 5.48127L9.61072 5.69641L9.1916 5.39472L8.39164 4.98323C8.41421 4.94514 8.43924 4.90657 8.46525 4.86601C8.47605 4.87788 8.49372 4.88283 8.50893 4.88283C8.54819 4.88283 8.58255 4.84919 8.58255 4.80864C8.58255 4.78688 8.57077 4.76561 8.55507 4.74879C8.58255 4.71516 8.61199 4.684 8.6439 4.65087L9.24558 5.323L9.64213 5.65338L9.31429 5.25376L8.64733 4.64839C8.6807 4.61724 8.7126 4.58608 8.74696 4.55739C8.75874 4.57421 8.78033 4.58608 8.80389 4.58608C8.8456 4.58608 8.87849 4.55245 8.87849 4.50942C8.87849 4.4926 8.87161 4.47826 8.86327 4.46392C8.90106 4.44215 8.93787 4.41594 8.97713 4.39468L9.38545 5.19837L9.68237 5.61926L9.46889 5.14792L8.98106 4.39171C9.02032 4.36797 9.05958 4.34621 9.09835 4.32692C9.11013 4.3556 9.13614 4.37489 9.16706 4.37489C9.20878 4.37489 9.24068 4.34126 9.24068 4.30318C9.24068 4.29131 9.23822 4.27944 9.23577 4.27202C9.27748 4.2552 9.32264 4.24333 9.36533 4.22899L9.55526 5.11182L9.73341 5.59997L9.64655 5.09055L9.37122 4.22949C9.41392 4.21514 9.45662 4.20772 9.50177 4.19833C9.50668 4.23443 9.53759 4.26312 9.5744 4.26312C9.61612 4.26312 9.649 4.22949 9.649 4.18646V4.17953C9.69268 4.17459 9.73783 4.17459 9.78298 4.17459" fill="#16007E"/>
<path d="M9.78798 5.52832C9.93522 5.52832 10.054 5.65048 10.054 5.79638C10.054 5.94228 9.93522 6.06692 9.78798 6.06692C9.64075 6.06692 9.51953 5.94476 9.51953 5.79638C9.51953 5.64801 9.6383 5.52832 9.78798 5.52832Z" fill="white"/>
<path d="M9.78817 5.59082C9.90105 5.59082 9.99331 5.68182 9.99331 5.79657C9.99331 5.91131 9.90056 6.00726 9.78817 6.00726C9.67578 6.00726 9.5791 5.91378 9.5791 5.79657C9.5791 5.67935 9.67284 5.59082 9.78817 5.59082Z" fill="#16007E"/>
</svg>
