<svg width="68" height="28" viewBox="0 0 68 28" fill="none" xmlns="http://www.w3.org/2000/svg">
<path d="M9.03529 18.9297H0.358831V17.8927C1.1668 17.8927 1.75441 17.829 2.12167 17.7016C2.48892 17.5561 2.71846 17.2923 2.81027 16.9102C2.92045 16.51 2.97554 15.9187 2.97554 15.1364V4.84793C2.97554 4.12019 2.92045 3.55619 2.81027 3.15593C2.71846 2.75567 2.48892 2.47367 2.12167 2.30993C1.75441 2.128 1.1668 2.03703 0.358831 2.03703V1H9.09037V2.03703C8.26405 2.03703 7.65807 2.128 7.27245 2.30993C6.90519 2.47367 6.67566 2.76477 6.58384 3.18322C6.51039 3.58348 6.47367 4.13838 6.47367 4.84793V15.1364C6.47367 15.9005 6.51957 16.4827 6.61139 16.8829C6.72156 17.2832 6.9511 17.5561 7.29999 17.7016C7.66725 17.829 8.24568 17.8927 9.03529 17.8927V18.9297Z" fill="#002550"/>
<path d="M28.3361 19.1207H25.9948L15.1424 4.84793H14.2334L13.5173 3.61986C13.1867 3.16503 12.8837 2.82845 12.6083 2.61012C12.3512 2.3918 12.0758 2.24626 11.782 2.17348C11.5065 2.08251 11.1668 2.03703 10.7628 2.03703V1H16.6573L26.5182 13.9629H26.6559V5.55748C26.6559 4.79335 26.61 4.15657 26.5182 3.64716C26.4264 3.11954 26.1968 2.71929 25.8296 2.44638C25.4807 2.17348 24.8839 2.03703 24.0392 2.03703V1H30.8151V2.03703C30.0622 2.03703 29.5021 2.17348 29.1349 2.44638C28.786 2.71929 28.5656 3.12864 28.4738 3.67445C28.382 4.20206 28.3361 4.84793 28.3361 5.61206V19.1207ZM17.5112 18.9297H10.7628V17.8927C11.4973 17.8927 12.0482 17.7107 12.4155 17.3469C12.7827 16.9648 13.0306 16.4372 13.1592 15.764C13.2877 15.0909 13.352 14.2995 13.352 13.3898V2.91032H15.0047V14.6451C15.0047 15.5548 15.0689 16.2462 15.1975 16.7192C15.326 17.174 15.5739 17.4833 15.9412 17.6471C16.3084 17.8108 16.8318 17.8927 17.5112 17.8927V18.9297Z" fill="#002550"/>
<path d="M41.2376 18.9297H32.451V17.8927C33.1487 17.8927 33.6721 17.8381 34.021 17.7289C34.3882 17.6198 34.6361 17.3833 34.7647 17.0194C34.8932 16.6555 34.9575 16.0915 34.9575 15.3274V4.13838C34.9575 3.59258 34.9024 3.17412 34.7922 2.88303C34.682 2.57374 34.4433 2.35542 34.0761 2.22806C33.7272 2.10071 33.1855 2.03703 32.451 2.03703V1H40.6041C41.9262 1 43.129 1.13645 44.2124 1.40935C45.3141 1.68226 46.1864 2.15529 46.8291 2.82845C47.4718 3.48341 47.7931 4.39309 47.7931 5.55748C47.7931 6.55812 47.5728 7.37683 47.1321 8.0136C46.7097 8.63218 46.1588 9.11431 45.4794 9.45998C44.8183 9.80566 44.1022 10.0695 43.331 10.2514V10.3879C43.6248 10.5698 43.9461 10.87 44.295 11.2884C44.6623 11.7069 45.1397 12.3346 45.7273 13.1715C46.3149 13.9902 47.1045 15.1 48.0961 16.5009C48.5368 17.1013 48.9684 17.4833 49.3907 17.6471C49.8314 17.8108 50.3639 17.8927 50.9883 17.8927V18.9297H45.3692C44.7082 17.8199 44.1573 16.9011 43.7166 16.1734C43.2759 15.4457 42.8994 14.8453 42.5873 14.3722C42.2751 13.881 41.9905 13.4444 41.7334 13.0623C41.4947 12.662 41.2376 12.2527 40.9621 11.8342C40.7051 11.4158 40.4572 11.1611 40.2184 11.0701C39.9797 10.9609 39.6217 10.9064 39.1442 10.9064H38.5107V15.3547C38.5107 16.0824 38.575 16.6373 38.7035 17.0194C38.8321 17.3833 39.0891 17.6198 39.4748 17.7289C39.8604 17.8381 40.448 17.8927 41.2376 17.8927V18.9297ZM38.5107 9.67831L39.5574 9.7056C40.5123 9.65102 41.3202 9.49637 41.9813 9.24166C42.6607 8.98695 43.1749 8.5776 43.5238 8.0136C43.891 7.4496 44.0746 6.67638 44.0746 5.69393C44.0746 4.6387 43.7717 3.8018 43.1657 3.18322C42.5597 2.54645 41.5773 2.22806 40.2184 2.22806C39.9246 2.22806 39.6308 2.23716 39.337 2.25535C39.0616 2.25535 38.7861 2.27355 38.5107 2.30993V9.67831Z" fill="#002550"/>
<path d="M67.1327 18.9297H51.7354V17.8927C52.4148 17.8927 52.9382 17.8472 53.3054 17.7562C53.6911 17.6471 53.9573 17.4287 54.1042 17.1013C54.2695 16.7738 54.3521 16.2644 54.3521 15.573V4.54774C54.3521 3.85638 54.2878 3.33787 54.1593 2.99219C54.0491 2.62832 53.8012 2.38271 53.4156 2.25535C53.0484 2.128 52.4883 2.06432 51.7354 2.06432V1H66.8572L67.0225 5.7758H65.8105C65.682 4.9207 65.4892 4.25664 65.2321 3.78361C64.9934 3.31058 64.5986 2.98309 64.0477 2.80116C63.5152 2.61922 62.7164 2.52826 61.6514 2.52826H57.8502V9.05063H60.6047C61.4861 9.05063 62.138 8.99605 62.5603 8.88689C63.001 8.77773 63.2857 8.55031 63.4142 8.20463C63.5611 7.84076 63.6345 7.30405 63.6345 6.59451H64.7639V12.8986H63.6345C63.6345 12.1344 63.5611 11.5795 63.4142 11.2339C63.2857 10.87 63.001 10.6426 62.5603 10.5516C62.138 10.4424 61.4861 10.3879 60.6047 10.3879H57.8502V17.4287H61.2107C62.1839 17.4287 62.9735 17.3833 63.5795 17.2923C64.1854 17.1831 64.6721 16.9921 65.0393 16.7192C65.4066 16.4463 65.7096 16.0642 65.9483 15.573C66.187 15.0818 66.4257 14.445 66.6644 13.6627H67.8213L67.1327 18.9297Z" fill="#002550"/>
<path d="M8.78643 26.9417V26.7035H9.19664V24.6731H8.78643V24.4349H9.97838V24.6731H9.59171V26.7035H9.97838V26.9417H8.78643Z" fill="#002550"/>
<path d="M10.4303 26.9417V26.7035H10.8354V24.6731H10.4303V24.4349H11.3381L12.5334 26.4986V24.6731H12.1232V24.4349H13.2395V24.6731H12.8545V26.9417H12.4057L11.1565 24.7897V26.7035H11.5415V26.9417H10.4303Z" fill="#002550"/>
<path d="M13.6662 26.9417V26.7035H14.0714V24.6731H13.6662V24.4349H14.574L15.7693 26.4986V24.6731H15.3591V24.4349H16.4754V24.6731H16.0904V26.9417H15.6416L14.3925 24.7897V26.7035H14.7775V26.9417H13.6662Z" fill="#002550"/>
<path d="M18.1832 26.9867C18.0307 26.9867 17.8884 26.9628 17.7562 26.9151C17.6239 26.8662 17.5101 26.799 17.4149 26.7135C17.323 26.6302 17.244 26.5331 17.1778 26.422C17.1128 26.3099 17.0652 26.1916 17.0349 26.0672C17.0035 25.944 16.9879 25.8168 16.9879 25.6858C16.9879 25.4148 17.0512 25.17 17.1778 24.9512C17.2451 24.8357 17.3252 24.7369 17.4182 24.6547C17.5124 24.5715 17.6233 24.5054 17.7511 24.4565C17.8856 24.4077 18.0296 24.3832 18.1832 24.3832C18.3356 24.3832 18.4779 24.4077 18.6102 24.4565C18.7436 24.5054 18.8573 24.5726 18.9515 24.6581C19.0434 24.7414 19.1218 24.8391 19.1868 24.9512C19.2518 25.0623 19.3 25.18 19.3314 25.3044C19.3617 25.4287 19.3768 25.5559 19.3768 25.6858C19.3768 25.9567 19.3135 26.2016 19.1868 26.4203C19.1196 26.5358 19.0394 26.6347 18.9464 26.7168C18.8534 26.799 18.743 26.864 18.6152 26.9117C18.483 26.9617 18.339 26.9867 18.1832 26.9867ZM18.1832 26.7535C18.3009 26.7535 18.409 26.7241 18.5076 26.6652C18.6074 26.6052 18.6892 26.5236 18.7531 26.4203C18.8159 26.3204 18.8635 26.2077 18.896 26.0822C18.9296 25.9556 18.9464 25.8246 18.9464 25.6891C18.9464 25.5803 18.9358 25.4742 18.9145 25.371C18.8943 25.2677 18.8629 25.1717 18.8203 25.0828C18.7273 24.8874 18.6046 24.7519 18.4522 24.6764C18.3703 24.6364 18.2807 24.6164 18.1832 24.6164C18.0655 24.6164 17.9573 24.6464 17.8587 24.7064C17.7601 24.7652 17.6783 24.8463 17.6133 24.9496C17.5505 25.0506 17.5023 25.1644 17.4687 25.291C17.435 25.4165 17.4182 25.547 17.4182 25.6825C17.4182 25.9123 17.4608 26.1155 17.546 26.2921C17.5908 26.3876 17.643 26.4692 17.7024 26.5369C17.7629 26.6036 17.8335 26.6558 17.9142 26.6935C17.9971 26.7335 18.0868 26.7535 18.1832 26.7535Z" fill="#002550"/>
<path d="M20.9921 27C20.9327 27 20.8845 26.9822 20.8475 26.9467C20.8116 26.9112 20.7786 26.8506 20.7483 26.7651L19.9901 24.6731H19.6051V24.4349H20.8105V24.6731H20.4558L21.0677 26.4537L21.6612 24.6731H21.2157V24.4349H22.3555V24.6731H21.947L21.2224 26.7651C21.2011 26.8251 21.1804 26.8717 21.1602 26.9051C21.1411 26.9384 21.1182 26.9622 21.0913 26.9767C21.0655 26.9922 21.0324 27 20.9921 27Z" fill="#002550"/>
<path d="M22.0979 26.9417V26.7035H22.4006L23.2865 24.4349H23.685L24.5844 26.7035H24.8668V26.9417H23.7791V26.7035H24.154L23.9203 26.1022H22.9486L22.7284 26.7035H23.152V26.9417H22.0979ZM23.0276 25.8907H23.8363L23.421 24.7613L23.0276 25.8907Z" fill="#002550"/>
<path d="M25.4263 26.9417V26.7035H25.818V24.6731H25.1742V25.4476H24.8615V24.4349H27.1579V25.4476H26.8436V24.6731H26.2148V26.7035H26.6166V26.9417H25.4263Z" fill="#002550"/>
<path d="M27.6115 26.9417V26.7035H28.0217V24.6731H27.6115V24.4349H28.8035V24.6731H28.4168V26.7035H28.8035V26.9417H27.6115Z" fill="#002550"/>
<path d="M30.5364 26.9867C30.384 26.9867 30.2416 26.9628 30.1094 26.9151C29.9771 26.8662 29.8634 26.799 29.7681 26.7135C29.6762 26.6302 29.5972 26.5331 29.5311 26.422C29.4661 26.3099 29.4184 26.1916 29.3882 26.0672C29.3568 25.944 29.3411 25.8168 29.3411 25.6858C29.3411 25.4148 29.4044 25.17 29.5311 24.9512C29.5983 24.8357 29.6785 24.7369 29.7715 24.6547C29.8656 24.5715 29.9766 24.5054 30.1044 24.4565C30.2388 24.4077 30.3829 24.3832 30.5364 24.3832C30.6888 24.3832 30.8312 24.4077 30.9634 24.4565C31.0968 24.5054 31.2106 24.5726 31.3047 24.6581C31.3966 24.7414 31.4751 24.8391 31.5401 24.9512C31.6051 25.0623 31.6533 25.18 31.6847 25.3044C31.7149 25.4287 31.73 25.5559 31.73 25.6858C31.73 25.9567 31.6667 26.2016 31.5401 26.4203C31.4728 26.5358 31.3927 26.6347 31.2997 26.7168C31.2066 26.799 31.0962 26.864 30.9685 26.9117C30.8362 26.9617 30.6922 26.9867 30.5364 26.9867ZM30.5364 26.7535C30.6541 26.7535 30.7622 26.7241 30.8609 26.6652C30.9606 26.6052 31.0424 26.5236 31.1063 26.4203C31.1691 26.3204 31.2167 26.2077 31.2492 26.0822C31.2829 25.9556 31.2997 25.8246 31.2997 25.6891C31.2997 25.5803 31.289 25.4742 31.2677 25.371C31.2475 25.2677 31.2162 25.1717 31.1736 25.0828C31.0806 24.8874 30.9578 24.7519 30.8054 24.6764C30.7236 24.6364 30.6339 24.6164 30.5364 24.6164C30.4187 24.6164 30.3106 24.6464 30.2119 24.7064C30.1133 24.7652 30.0315 24.8463 29.9665 24.9496C29.9037 25.0506 29.8555 25.1644 29.8219 25.291C29.7883 25.4165 29.7715 25.547 29.7715 25.6825C29.7715 25.9123 29.8141 26.1155 29.8993 26.2921C29.9441 26.3876 29.9962 26.4692 30.0556 26.5369C30.1161 26.6036 30.1867 26.6558 30.2674 26.6935C30.3504 26.7335 30.44 26.7535 30.5364 26.7535Z" fill="#002550"/>
<path d="M32.2727 26.9417V26.7035H32.6779V24.6731H32.2727V24.4349H33.1806L34.3759 26.4986V24.6731H33.9657V24.4349H35.082V24.6731H34.697V26.9417H34.2481L32.999 24.7897V26.7035H33.384V26.9417H32.2727Z" fill="#002550"/>
<path d="M36.6549 26.9417V26.7035H37.0651V24.6731H36.6549V24.4349H37.8468V24.6731H37.4601V26.7035H37.8468V26.9417H36.6549Z" fill="#002550"/>
<path d="M38.2987 26.9417V26.7035H38.7039V24.6731H38.2987V24.4349H39.2065L40.4019 26.4986V24.6731H39.9916V24.4349H41.1079V24.6731H40.723V26.9417H40.2741L39.025 24.7897V26.7035H39.41V26.9417H38.2987Z" fill="#002550"/>
<path d="M44.7857 26.9967C44.7173 26.9967 44.6551 26.9845 44.5991 26.96C44.5442 26.9367 44.4976 26.9039 44.4595 26.8617C44.4237 26.8229 44.3912 26.7696 44.362 26.7018C44.3329 26.6341 44.3082 26.5603 44.2881 26.4803C44.2656 26.3893 44.2466 26.2988 44.2309 26.2088C44.2208 26.1455 44.2034 26.0872 44.1788 26.0339C44.1541 25.9806 44.1278 25.9395 44.0998 25.9107C44.0729 25.884 44.0443 25.8612 44.014 25.8424C43.9838 25.8235 43.9585 25.8113 43.9384 25.8057C43.9204 25.8013 43.9036 25.7991 43.8879 25.7991H43.4912V26.7035H43.8728V26.9417H42.6859V26.7035H43.0944V24.6731H42.6859V24.4349H43.7316C43.8056 24.4349 43.8672 24.436 43.9165 24.4382C43.9669 24.4404 44.0303 24.4449 44.1065 24.4515C44.1995 24.4604 44.2757 24.4726 44.3351 24.4882C44.3956 24.5037 44.4629 24.5282 44.5369 24.5615C44.6075 24.5937 44.6635 24.6325 44.705 24.6781C44.7476 24.7225 44.7834 24.7808 44.8126 24.853C44.8406 24.9229 44.8546 25.004 44.8546 25.0961C44.8546 25.2905 44.7935 25.4354 44.6714 25.5309C44.612 25.5764 44.5475 25.6136 44.478 25.6425C44.4085 25.6702 44.325 25.6941 44.2275 25.7141C44.2925 25.7274 44.3469 25.7458 44.3906 25.7691C44.4343 25.7924 44.4713 25.8229 44.5016 25.8607C44.5296 25.8973 44.552 25.9362 44.5688 25.9773C44.5867 26.0184 44.6052 26.0728 44.6243 26.1405C44.6389 26.1949 44.6596 26.2849 44.6865 26.4104C44.6932 26.4481 44.7033 26.487 44.7168 26.527C44.7302 26.5669 44.7436 26.598 44.7571 26.6202C44.7717 26.6447 44.7902 26.6646 44.8126 26.6802C44.835 26.6957 44.8602 26.7035 44.8882 26.7035C45.0037 26.7035 45.0614 26.5986 45.0614 26.3887V26.1572H45.2884V26.402C45.2884 26.7985 45.1208 26.9967 44.7857 26.9967ZM43.7013 25.5492C43.8818 25.5492 44.028 25.5364 44.1401 25.5109C44.2522 25.4842 44.3396 25.4398 44.4024 25.3776C44.4674 25.3143 44.4999 25.2305 44.4999 25.1261C44.4999 25.0362 44.4836 24.9618 44.4511 24.9029C44.4186 24.8441 44.3671 24.7974 44.2965 24.763C44.227 24.7308 44.1446 24.708 44.0493 24.6947C43.9552 24.6803 43.8347 24.6731 43.6879 24.6731H43.4912V25.5492H43.7013Z" fill="#002550"/>
<path d="M45.6932 26.9417V26.7035H46.1067V24.6731H45.6932V24.4349H47.9796V25.3993H47.6753V24.6731H46.5018V25.5742H47.1289V25.1644H47.3525V26.1988H47.1289V25.7641H46.5018V26.7035H47.6753V25.9906H47.9796V26.9417H45.6932Z" fill="#002550"/>
<path d="M48.4903 26.9417V26.7035H48.7929L49.6789 24.4349H50.0773L50.9768 26.7035H51.2592V26.9417H50.1715V26.7035H50.5464L50.3127 26.1022H49.341L49.1207 26.7035H49.5444V26.9417H48.4903ZM49.42 25.8907H50.2286L49.8134 24.7613L49.42 25.8907Z" fill="#002550"/>
<path d="M51.6707 26.9417V26.7035H52.0793V24.6731H51.6707V24.4349H52.861V24.6731H52.476V26.7035H53.4259V25.9007H53.7403V26.9417H51.6707Z" fill="#002550"/>
<path d="M54.5166 26.9417V26.7035H54.9083V24.6731H54.2645V25.4476H53.9518V24.4349H56.2482V25.4476H55.9339V24.6731H55.3051V26.7035H55.7069V26.9417H54.5166Z" fill="#002550"/>
<path d="M57.3508 26.9417V26.7035H57.7593V25.9506L57.033 24.6731H56.6901V24.4349H57.8148V24.6731H57.4298L57.998 25.7074L58.583 24.6731H58.2082V24.4349H59.2269V24.6731H58.9092L58.156 25.959V26.7035H58.541V26.9417H57.3508Z" fill="#002550"/>
<path d="M0 25.9518L5.59494 25.9518M62.4051 25.9518L68 25.9518M9.03529 18.9297H0.358831V17.8927C1.1668 17.8927 1.75441 17.829 2.12167 17.7016C2.48892 17.5561 2.71846 17.2923 2.81027 16.9102C2.92045 16.51 2.97554 15.9187 2.97554 15.1364V4.84793C2.97554 4.12019 2.92045 3.55619 2.81027 3.15593C2.71846 2.75567 2.48892 2.47367 2.12167 2.30993C1.75441 2.128 1.1668 2.03703 0.358831 2.03703V1H9.09038V2.03703C8.26405 2.03703 7.65807 2.128 7.27245 2.30993C6.90519 2.47367 6.67566 2.76477 6.58384 3.18322C6.51039 3.58348 6.47367 4.13838 6.47367 4.84793V15.1364C6.47367 15.9005 6.51957 16.4827 6.61139 16.8829C6.72156 17.2832 6.9511 17.5561 7.29999 17.7016C7.66725 17.829 8.24568 17.8927 9.03529 17.8927V18.9297ZM28.3361 19.1207H25.9948L15.1424 4.84793H14.2334L13.5173 3.61987C13.1867 3.16503 12.8837 2.82845 12.6083 2.61012C12.3512 2.3918 12.0758 2.24626 11.782 2.17348C11.5065 2.08251 11.1668 2.03703 10.7628 2.03703V1H16.6573L26.5182 13.9629H26.6559V5.55748C26.6559 4.79335 26.61 4.15657 26.5182 3.64716C26.4264 3.11954 26.1968 2.71929 25.8296 2.44638C25.4807 2.17348 24.8839 2.03703 24.0392 2.03703V1H30.8151V2.03703C30.0622 2.03703 29.5021 2.17348 29.1349 2.44638C28.786 2.71929 28.5656 3.12864 28.4738 3.67445C28.382 4.20206 28.3361 4.84793 28.3361 5.61206V19.1207ZM17.5112 18.9297H10.7628V17.8927C11.4973 17.8927 12.0482 17.7107 12.4155 17.3469C12.7827 16.9648 13.0306 16.4372 13.1592 15.764C13.2877 15.0909 13.352 14.2995 13.352 13.3898V2.91032H15.0047V14.6451C15.0047 15.5548 15.0689 16.2462 15.1975 16.7192C15.326 17.174 15.5739 17.4833 15.9412 17.6471C16.3084 17.8108 16.8318 17.8927 17.5112 17.8927V18.9297ZM41.2376 18.9297H32.451V17.8927C33.1487 17.8927 33.6721 17.8381 34.021 17.7289C34.3882 17.6198 34.6361 17.3833 34.7647 17.0194C34.8932 16.6555 34.9575 16.0915 34.9575 15.3274V4.13838C34.9575 3.59258 34.9024 3.17412 34.7922 2.88303C34.682 2.57374 34.4433 2.35542 34.0761 2.22806C33.7272 2.10071 33.1855 2.03703 32.451 2.03703V1H40.6041C41.9262 1 43.129 1.13645 44.2124 1.40935C45.3141 1.68226 46.1864 2.15529 46.8291 2.82845C47.4718 3.48341 47.7931 4.39309 47.7931 5.55748C47.7931 6.55812 47.5728 7.37683 47.1321 8.0136C46.7097 8.63218 46.1588 9.11431 45.4794 9.45999C44.8183 9.80566 44.1022 10.0695 43.331 10.2514V10.3879C43.6248 10.5698 43.9461 10.87 44.295 11.2884C44.6623 11.7069 45.1397 12.3346 45.7273 13.1715C46.3149 13.9902 47.1045 15.1 48.0961 16.5009C48.5368 17.1013 48.9684 17.4833 49.3907 17.6471C49.8314 17.8108 50.3639 17.8927 50.9883 17.8927V18.9297H45.3692C44.7082 17.8199 44.1573 16.9011 43.7166 16.1734C43.2759 15.4457 42.8994 14.8453 42.5873 14.3722C42.2751 13.881 41.9905 13.4444 41.7334 13.0623C41.4947 12.662 41.2376 12.2527 40.9621 11.8342C40.7051 11.4158 40.4572 11.1611 40.2184 11.0701C39.9797 10.9609 39.6217 10.9064 39.1442 10.9064H38.5107V15.3547C38.5107 16.0824 38.575 16.6373 38.7035 17.0194C38.8321 17.3833 39.0891 17.6198 39.4748 17.7289C39.8604 17.8381 40.448 17.8927 41.2376 17.8927V18.9297ZM38.5107 9.67831L39.5574 9.7056C40.5123 9.65102 41.3202 9.49637 41.9813 9.24166C42.6607 8.98695 43.1749 8.5776 43.5238 8.0136C43.891 7.4496 44.0747 6.67638 44.0747 5.69393C44.0747 4.6387 43.7717 3.8018 43.1657 3.18322C42.5597 2.54645 41.5773 2.22806 40.2184 2.22806C39.9246 2.22806 39.6308 2.23716 39.337 2.25535C39.0616 2.25535 38.7861 2.27355 38.5107 2.30993V9.67831ZM67.1327 18.9297H51.7354V17.8927C52.4148 17.8927 52.9382 17.8472 53.3054 17.7562C53.6911 17.6471 53.9573 17.4287 54.1042 17.1013C54.2695 16.7738 54.3521 16.2644 54.3521 15.573V4.54774C54.3521 3.85638 54.2878 3.33787 54.1593 2.99219C54.0491 2.62832 53.8012 2.38271 53.4156 2.25535C53.0484 2.128 52.4883 2.06432 51.7354 2.06432V1H66.8572L67.0225 5.7758H65.8105C65.682 4.9207 65.4892 4.25664 65.2321 3.78361C64.9934 3.31058 64.5986 2.98309 64.0477 2.80116C63.5152 2.61922 62.7164 2.52826 61.6514 2.52826H57.8502V9.05063H60.6047C61.4861 9.05063 62.138 8.99605 62.5603 8.88689C63.001 8.77773 63.2857 8.55031 63.4142 8.20463C63.5611 7.84076 63.6345 7.30405 63.6345 6.59451H64.7639V12.8986H63.6345C63.6345 12.1344 63.5611 11.5795 63.4142 11.2339C63.2857 10.87 63.001 10.6426 62.5603 10.5516C62.138 10.4424 61.4861 10.3879 60.6047 10.3879H57.8502V17.4287H61.2106C62.1839 17.4287 62.9735 17.3833 63.5795 17.2923C64.1854 17.1831 64.6721 16.9921 65.0393 16.7192C65.4066 16.4463 65.7096 16.0642 65.9483 15.573C66.187 15.0818 66.4257 14.445 66.6644 13.6627H67.8213L67.1327 18.9297ZM8.78643 26.9417V26.7035H9.19664V24.6731H8.78643V24.4349H9.97838V24.6731H9.59171V26.7035H9.97838V26.9417H8.78643ZM10.4303 26.9417V26.7035H10.8354V24.6731H10.4303V24.4349H11.3381L12.5334 26.4986V24.6731H12.1232V24.4349H13.2395V24.6731H12.8545V26.9417H12.4057L11.1565 24.7897V26.7035H11.5415V26.9417H10.4303ZM13.6662 26.9417V26.7035H14.0714V24.6731H13.6662V24.4349H14.574L15.7693 26.4986V24.6731H15.3591V24.4349H16.4754V24.6731H16.0904V26.9417H15.6416L14.3925 24.7897V26.7035H14.7775V26.9417H13.6662ZM18.1832 26.9867C18.0307 26.9867 17.8884 26.9628 17.7562 26.9151C17.6239 26.8662 17.5101 26.799 17.4149 26.7135C17.323 26.6302 17.244 26.5331 17.1778 26.422C17.1128 26.3099 17.0652 26.1916 17.0349 26.0672C17.0035 25.944 16.9879 25.8168 16.9879 25.6858C16.9879 25.4148 17.0512 25.17 17.1778 24.9512C17.2451 24.8357 17.3252 24.7369 17.4182 24.6547C17.5124 24.5715 17.6233 24.5054 17.7511 24.4565C17.8856 24.4077 18.0296 24.3832 18.1832 24.3832C18.3356 24.3832 18.4779 24.4077 18.6102 24.4565C18.7436 24.5054 18.8573 24.5726 18.9515 24.6581C19.0434 24.7414 19.1218 24.8391 19.1868 24.9512C19.2518 25.0623 19.3 25.18 19.3314 25.3044C19.3617 25.4287 19.3768 25.5559 19.3768 25.6858C19.3768 25.9567 19.3135 26.2016 19.1868 26.4203C19.1196 26.5358 19.0394 26.6347 18.9464 26.7168C18.8534 26.799 18.743 26.864 18.6152 26.9117C18.483 26.9617 18.339 26.9867 18.1832 26.9867ZM18.1832 26.7535C18.3009 26.7535 18.409 26.7241 18.5076 26.6652C18.6074 26.6052 18.6892 26.5236 18.7531 26.4203C18.8159 26.3204 18.8635 26.2077 18.896 26.0822C18.9296 25.9556 18.9464 25.8246 18.9464 25.6891C18.9464 25.5803 18.9358 25.4742 18.9145 25.371C18.8943 25.2677 18.8629 25.1717 18.8203 25.0828C18.7273 24.8874 18.6046 24.7519 18.4522 24.6764C18.3703 24.6364 18.2807 24.6164 18.1832 24.6164C18.0655 24.6164 17.9573 24.6464 17.8587 24.7064C17.7601 24.7652 17.6783 24.8463 17.6133 24.9496C17.5505 25.0506 17.5023 25.1644 17.4687 25.291C17.435 25.4165 17.4182 25.547 17.4182 25.6825C17.4182 25.9123 17.4608 26.1155 17.546 26.2921C17.5908 26.3876 17.643 26.4692 17.7024 26.5369C17.7629 26.6036 17.8335 26.6558 17.9142 26.6935C17.9971 26.7335 18.0868 26.7535 18.1832 26.7535ZM20.9921 27C20.9327 27 20.8845 26.9822 20.8475 26.9467C20.8116 26.9112 20.7786 26.8506 20.7483 26.7651L19.9901 24.6731H19.6051V24.4349H20.8105V24.6731H20.4558L21.0677 26.4537L21.6612 24.6731H21.2157V24.4349H22.3555V24.6731H21.947L21.2224 26.7651C21.2011 26.8251 21.1804 26.8717 21.1602 26.9051C21.1411 26.9384 21.1182 26.9622 21.0913 26.9767C21.0655 26.9922 21.0324 27 20.9921 27ZM22.0979 26.9417V26.7035H22.4006L23.2865 24.4349H23.685L24.5844 26.7035H24.8668V26.9417H23.7791V26.7035H24.154L23.9203 26.1022H22.9486L22.7284 26.7035H23.152V26.9417H22.0979ZM23.0276 25.8907H23.8363L23.421 24.7613L23.0276 25.8907ZM25.4263 26.9417V26.7035H25.818V24.6731H25.1741V25.4476H24.8615V24.4349H27.1579V25.4476H26.8436V24.6731H26.2148V26.7035H26.6166V26.9417H25.4263ZM27.6115 26.9417V26.7035H28.0217V24.6731H27.6115V24.4349H28.8035V24.6731H28.4168V26.7035H28.8035V26.9417H27.6115ZM30.5364 26.9867C30.384 26.9867 30.2416 26.9628 30.1094 26.9151C29.9771 26.8662 29.8634 26.799 29.7681 26.7135C29.6762 26.6302 29.5972 26.5331 29.5311 26.422C29.4661 26.3099 29.4184 26.1916 29.3882 26.0672C29.3568 25.944 29.3411 25.8168 29.3411 25.6858C29.3411 25.4148 29.4044 25.17 29.5311 24.9512C29.5983 24.8357 29.6785 24.7369 29.7715 24.6547C29.8656 24.5715 29.9766 24.5054 30.1044 24.4565C30.2388 24.4077 30.3829 24.3832 30.5364 24.3832C30.6888 24.3832 30.8312 24.4077 30.9634 24.4565C31.0968 24.5054 31.2106 24.5726 31.3047 24.6581C31.3966 24.7414 31.4751 24.8391 31.5401 24.9512C31.6051 25.0623 31.6533 25.18 31.6847 25.3044C31.7149 25.4287 31.73 25.5559 31.73 25.6858C31.73 25.9567 31.6667 26.2016 31.5401 26.4203C31.4728 26.5358 31.3927 26.6347 31.2997 26.7168C31.2066 26.799 31.0962 26.864 30.9685 26.9117C30.8362 26.9617 30.6922 26.9867 30.5364 26.9867ZM30.5364 26.7535C30.6541 26.7535 30.7622 26.7241 30.8609 26.6652C30.9606 26.6052 31.0424 26.5236 31.1063 26.4203C31.1691 26.3204 31.2167 26.2077 31.2492 26.0822C31.2829 25.9556 31.2997 25.8246 31.2997 25.6891C31.2997 25.5803 31.289 25.4742 31.2677 25.371C31.2475 25.2677 31.2162 25.1717 31.1736 25.0828C31.0806 24.8874 30.9578 24.7519 30.8054 24.6764C30.7236 24.6364 30.6339 24.6164 30.5364 24.6164C30.4187 24.6164 30.3106 24.6464 30.2119 24.7064C30.1133 24.7652 30.0315 24.8463 29.9665 24.9496C29.9037 25.0506 29.8555 25.1644 29.8219 25.291C29.7883 25.4165 29.7715 25.547 29.7715 25.6825C29.7715 25.9123 29.8141 26.1155 29.8992 26.2921C29.9441 26.3876 29.9962 26.4692 30.0556 26.5369C30.1161 26.6036 30.1867 26.6558 30.2674 26.6935C30.3504 26.7335 30.44 26.7535 30.5364 26.7535ZM32.2727 26.9417V26.7035H32.6779V24.6731H32.2727V24.4349H33.1806L34.3759 26.4986V24.6731H33.9657V24.4349H35.082V24.6731H34.697V26.9417H34.2481L32.999 24.7897V26.7035H33.384V26.9417H32.2727ZM36.6549 26.9417V26.7035H37.0651V24.6731H36.6549V24.4349H37.8468V24.6731H37.4601V26.7035H37.8468V26.9417H36.6549ZM38.2987 26.9417V26.7035H38.7039V24.6731H38.2987V24.4349H39.2065L40.4019 26.4986V24.6731H39.9917V24.4349H41.1079V24.6731H40.723V26.9417H40.2741L39.025 24.7897V26.7035H39.41V26.9417H38.2987ZM44.7857 26.9967C44.7173 26.9967 44.6551 26.9845 44.5991 26.96C44.5442 26.9367 44.4976 26.9039 44.4595 26.8617C44.4237 26.8229 44.3912 26.7696 44.362 26.7018C44.3329 26.6341 44.3082 26.5603 44.2881 26.4803C44.2656 26.3893 44.2466 26.2988 44.2309 26.2088C44.2208 26.1455 44.2034 26.0872 44.1788 26.0339C44.1541 25.9806 44.1278 25.9395 44.0998 25.9107C44.0729 25.884 44.0443 25.8612 44.014 25.8424C43.9838 25.8235 43.9585 25.8113 43.9384 25.8057C43.9204 25.8013 43.9036 25.7991 43.8879 25.7991H43.4912V26.7035H43.8728V26.9417H42.6859V26.7035H43.0944V24.6731H42.6859V24.4349H43.7316C43.8056 24.4349 43.8672 24.436 43.9165 24.4382C43.9669 24.4404 44.0303 24.4449 44.1065 24.4515C44.1995 24.4604 44.2757 24.4726 44.3351 24.4882C44.3956 24.5037 44.4629 24.5282 44.5369 24.5615C44.6075 24.5937 44.6635 24.6325 44.705 24.6781C44.7476 24.7225 44.7834 24.7808 44.8126 24.853C44.8406 24.9229 44.8546 25.004 44.8546 25.0961C44.8546 25.2905 44.7935 25.4354 44.6714 25.5309C44.612 25.5764 44.5475 25.6136 44.478 25.6425C44.4085 25.6702 44.325 25.6941 44.2275 25.7141C44.2925 25.7274 44.3469 25.7458 44.3906 25.7691C44.4343 25.7924 44.4713 25.8229 44.5016 25.8607C44.5296 25.8973 44.552 25.9362 44.5688 25.9773C44.5867 26.0184 44.6052 26.0728 44.6243 26.1405C44.6389 26.1949 44.6596 26.2849 44.6865 26.4104C44.6932 26.4481 44.7033 26.487 44.7168 26.527C44.7302 26.5669 44.7437 26.598 44.7571 26.6202C44.7717 26.6447 44.7902 26.6646 44.8126 26.6802C44.835 26.6957 44.8602 26.7035 44.8882 26.7035C45.0037 26.7035 45.0614 26.5986 45.0614 26.3887V26.1572H45.2884V26.402C45.2884 26.7985 45.1208 26.9967 44.7857 26.9967ZM43.7013 25.5492C43.8818 25.5492 44.028 25.5364 44.1401 25.5109C44.2522 25.4842 44.3396 25.4398 44.4024 25.3776C44.4674 25.3143 44.4999 25.2305 44.4999 25.1261C44.4999 25.0362 44.4836 24.9618 44.4511 24.9029C44.4186 24.8441 44.3671 24.7974 44.2965 24.763C44.227 24.7308 44.1446 24.708 44.0493 24.6947C43.9552 24.6803 43.8347 24.6731 43.6879 24.6731H43.4912V25.5492H43.7013ZM45.6932 26.9417V26.7035H46.1067V24.6731H45.6932V24.4349H47.9796V25.3993H47.6753V24.6731H46.5018V25.5742H47.1289V25.1644H47.3525V26.1988H47.1289V25.7641H46.5018V26.7035H47.6753V25.9906H47.9796V26.9417H45.6932ZM48.4903 26.9417V26.7035H48.7929L49.6789 24.4349H50.0773L50.9768 26.7035H51.2592V26.9417H50.1715V26.7035H50.5464L50.3127 26.1022H49.341L49.1207 26.7035H49.5444V26.9417H48.4903ZM49.42 25.8907H50.2286L49.8134 24.7613L49.42 25.8907ZM51.6707 26.9417V26.7035H52.0793V24.6731H51.6707V24.4349H52.861V24.6731H52.476V26.7035H53.4259V25.9007H53.7403V26.9417H51.6707ZM54.5166 26.9417V26.7035H54.9083V24.6731H54.2645V25.4476H53.9518V24.4349H56.2482V25.4476H55.9339V24.6731H55.3051V26.7035H55.7069V26.9417H54.5166ZM57.3508 26.9417V26.7035H57.7593V25.9506L57.033 24.6731H56.6901V24.4349H57.8148V24.6731H57.4298L57.998 25.7074L58.583 24.6731H58.2082V24.4349H59.2269V24.6731H58.9092L58.156 25.959V26.7035H58.541V26.9417H57.3508Z" stroke="#002550" stroke-width="0.120698"/>
</svg>
